<?xml version="1.0" encoding="UTF-8" standalone="no"?>
<svg
   xmlns:dc="http://purl.org/dc/elements/1.1/"
   xmlns:cc="http://creativecommons.org/ns#"
   xmlns:rdf="http://www.w3.org/1999/02/22-rdf-syntax-ns#"
   xmlns:svg="http://www.w3.org/2000/svg"
   xmlns="http://www.w3.org/2000/svg"
   xmlns:xlink="http://www.w3.org/1999/xlink"
   xmlns:sodipodi="http://sodipodi.sourceforge.net/DTD/sodipodi-0.dtd"
   xmlns:inkscape="http://www.inkscape.org/namespaces/inkscape"
   inkscape:export-ydpi="96"
   inkscape:export-xdpi="96"
   inkscape:export-filename="/home/ninjawarrior1337/Pictures/logo2020.png"
   sodipodi:docname="logo2020.svg"
   inkscape:version="1.0 (4035a4fb49, 2020-05-01)"
   id="svg8"
   version="1.1"
   viewBox="0 0 26.880945 23.29229"
   height="23.29229mm"
   width="26.880945mm">
  <defs
     id="defs2">
    <linearGradient
       inkscape:collect="always"
       id="AA">
      <stop
         style="stop-color:#3399ff;stop-opacity:1"
         offset="0"
         id="stop1083" />
      <stop
         style="stop-color:#e4007f;stop-opacity:1"
         offset="1"
         id="stop1085" />
    </linearGradient>
    <linearGradient
       spreadMethod="pad"
       gradientUnits="userSpaceOnUse"
       y2="122.37518"
       x2="82.268654"
       y1="117.67372"
       x1="90.074966"
       id="linearGradient896"
       xlink:href="#AA"
       inkscape:collect="always" />
  </defs>
  <sodipodi:namedview
     inkscape:window-maximized="1"
     inkscape:window-y="628"
     inkscape:window-x="1080"
     inkscape:window-height="1003"
     inkscape:window-width="1920"
     showgrid="false"
     inkscape:document-rotation="0"
     inkscape:current-layer="layer1"
     inkscape:document-units="mm"
     inkscape:cy="53.362044"
     inkscape:cx="10.000718"
     inkscape:zoom="4"
     inkscape:pageshadow="2"
     inkscape:pageopacity="0.0"
     borderopacity="1.0"
     bordercolor="#666666"
     pagecolor="#ffffff"
     id="base"
     inkscape:snap-bbox="false"
     fit-margin-top="0"
     fit-margin-left="0"
     fit-margin-right="0"
     fit-margin-bottom="0" />
  <metadata
     id="metadata5">
    <rdf:RDF>
      <cc:Work
         rdf:about="">
        <dc:format>image/svg+xml</dc:format>
        <dc:type
           rdf:resource="http://purl.org/dc/dcmitype/StillImage" />
        <dc:title />
      </cc:Work>
    </rdf:RDF>
  </metadata>
  <g
     id="layer1"
     inkscape:groupmode="layer"
     inkscape:label="Layer 1"
     transform="translate(-76.867958,-102.48029)">
    <g
       style="font-style:normal;font-weight:normal;font-size:38.1px;line-height:1.25;font-family:sans-serif;letter-spacing:0px;word-spacing:0px;fill:#000000;fill-opacity:1;stroke:none;stroke-width:0.264583"
       id="text12"
       aria-label="T">
      <path
         id="path14"
         style="font-style:normal;font-variant:normal;font-weight:normal;font-stretch:normal;font-size:38.1px;font-family:'Futurama Alien Alphabet One';-inkscape-font-specification:'Futurama Alien Alphabet One';mix-blend-mode:normal;fill:url(#linearGradient896);fill-opacity:1;stroke-width:0.264583"
         d="m 102.59662,123.11159 -1.74873,1.65571 -10.667682,-8.31316 -10.61474,7.55042 -1.525489,-1.52549 c 9.305578,-4.8735 10.622607,-6.38236 10.622607,-16.16646 h 2.69751 c -1.450848,10.35071 3.151065,11.37743 11.236524,16.79898 z M 87.211512,105.04757 c 0.148828,-1.47587 0.985986,-2.33163 2.511475,-2.56728 1.203027,0.0496 2.027783,0.38446 2.474267,1.00459 0.458887,0.62012 0.613916,1.43867 0.465088,2.45566 -0.533301,1.30225 -1.513086,1.94097 -2.939355,1.91617 -1.624707,-0.27285 -2.461866,-1.20923 -2.511475,-2.80914 z m -10.343554,17.91519 c 0.148828,-1.47588 0.979785,-2.33164 2.492871,-2.56729 1.203027,0.0372 2.027783,0.37206 2.474267,1.00459 0.458887,0.62012 0.620117,1.43247 0.483692,2.43706 -0.533301,1.31465 -1.519287,1.95958 -2.957959,1.93477 -1.624707,-0.27285 -2.455664,-1.20923 -2.492871,-2.80913 z m 21.394042,-0.093 c 0.148828,-1.47588 0.979785,-2.33164 2.49287,-2.56728 1.20303,0.0372 2.02778,0.37206 2.47427,1.00459 0.45889,0.62011 0.61392,1.43247 0.46509,2.43706 -0.5209,1.31465 -1.50069,1.95957 -2.93936,1.93476 -1.624706,-0.27285 -2.455663,-1.20922 -2.49287,-2.80913 z"
         sodipodi:nodetypes="cccccccccccccccccccccccccc" />
    </g>
  </g>
</svg>
